<svg xmlns="http://www.w3.org/2000/svg" xmlns:xlink="http://www.w3.org/1999/xlink" width="1920" zoomAndPan="magnify" viewBox="0 0 1440 809.999993" height="1080" preserveAspectRatio="xMidYMid meet" version="1.0"><defs><g/><clipPath id="3eac0d4c16"><rect x="0" width="279" y="0" height="124"/></clipPath></defs><g transform="matrix(1, 0, 0, 1, 581, 343)"><g clip-path="url(#3eac0d4c16)"><g fill="#d5dbff" fill-opacity="1"><g transform="translate(0.589, 106.703902)"><g><path d="M 20.484375 -58.625 C 20.691406 -58.6875 21.113281 -58.75 21.75 -58.8125 C 22.394531 -58.882812 23.191406 -58.921875 24.140625 -58.921875 C 28.804688 -58.921875 32.640625 -57.71875 35.640625 -55.3125 C 38.648438 -52.914062 40.15625 -49.488281 40.15625 -45.03125 C 40.15625 -41.3125 39.140625 -38.082031 37.109375 -35.34375 C 35.085938 -32.601562 32.503906 -30.320312 29.359375 -28.5 C 26.210938 -26.675781 22.914062 -25.222656 19.46875 -24.140625 C 20.757812 -25.960938 21.875 -28.257812 22.8125 -31.03125 C 23.757812 -33.800781 24.488281 -36.742188 25 -39.859375 C 25.507812 -42.972656 25.710938 -45.914062 25.609375 -48.6875 C 25.503906 -51.457031 25.046875 -53.753906 24.234375 -55.578125 C 23.421875 -57.398438 22.171875 -58.414062 20.484375 -58.625 Z M 13.796875 -39.953125 C 13.796875 -35.703125 14.382812 -31.816406 15.5625 -28.296875 C 16.75 -24.773438 18.507812 -21.96875 20.84375 -19.875 C 23.175781 -17.78125 26.03125 -16.734375 29.40625 -16.734375 C 31.570312 -16.734375 33.535156 -17.101562 35.296875 -17.84375 C 37.054688 -18.59375 38.304688 -19.238281 39.046875 -19.78125 L 39.046875 -1.828125 C 37.691406 -0.941406 35.847656 -0.234375 33.515625 0.296875 C 31.179688 0.835938 28.765625 1.109375 26.265625 1.109375 C 20.785156 1.109375 16.1875 -0.222656 12.46875 -2.890625 C 8.75 -5.554688 5.941406 -9.1875 4.046875 -13.78125 C 2.160156 -18.382812 1.21875 -23.523438 1.21875 -29.203125 C 1.21875 -36.984375 2.835938 -43.441406 6.078125 -48.578125 C 9.328125 -53.722656 13.691406 -56.9375 19.171875 -58.21875 C 18.222656 -57.875 17.34375 -56.820312 16.53125 -55.0625 C 15.71875 -53.3125 15.054688 -51.117188 14.546875 -48.484375 C 14.046875 -45.847656 13.796875 -43.003906 13.796875 -39.953125 Z M 13.796875 -39.953125 "/></g></g></g><g fill="#d5dbff" fill-opacity="1"><g transform="translate(44.291978, 106.703902)"><g><path d="M 16.125 -57.40625 C 16.664062 -57.601562 17.679688 -57.90625 19.171875 -58.3125 C 20.660156 -58.71875 22.519531 -58.921875 24.75 -58.921875 C 26.914062 -58.921875 29.007812 -58.703125 31.03125 -58.265625 C 33.0625 -57.828125 34.820312 -57.269531 36.3125 -56.59375 L 36.3125 -32.453125 C 35.09375 -35.429688 33.820312 -38.40625 32.5 -41.375 C 31.1875 -44.351562 29.75 -47.054688 28.1875 -49.484375 C 26.632812 -51.921875 24.878906 -53.863281 22.921875 -55.3125 C 20.960938 -56.769531 18.695312 -57.46875 16.125 -57.40625 Z M 14.609375 -56.796875 C 13.796875 -56.117188 13.050781 -54.695312 12.375 -52.53125 C 11.695312 -50.375 11.359375 -47.640625 11.359375 -44.328125 C 11.359375 -39.722656 12.117188 -35.375 13.640625 -31.28125 C 15.160156 -27.195312 17.289062 -23.882812 20.03125 -21.34375 C 22.769531 -18.8125 25.960938 -17.546875 29.609375 -17.546875 C 30.898438 -17.546875 32.21875 -17.695312 33.5625 -18 C 34.914062 -18.300781 35.929688 -18.691406 36.609375 -19.171875 L 36.609375 -1.21875 C 35.328125 -0.539062 33.632812 0.015625 31.53125 0.453125 C 29.4375 0.890625 27.3125 1.109375 25.15625 1.109375 C 19.945312 1.109375 15.566406 -0.238281 12.015625 -2.9375 C 8.460938 -5.644531 5.773438 -9.296875 3.953125 -13.890625 C 2.128906 -18.492188 1.21875 -23.566406 1.21875 -29.109375 C 1.21875 -36.335938 2.566406 -42.269531 5.265625 -46.90625 C 7.972656 -51.539062 11.085938 -54.835938 14.609375 -56.796875 Z M 14.609375 -56.796875 "/></g></g></g><g fill="#d5dbff" fill-opacity="1"><g transform="translate(86.677084, 106.703902)"><g><path d="M 2.9375 0 L 2.9375 -75.5625 C 5.914062 -75.695312 8.820312 -75.878906 11.65625 -76.109375 C 14.5 -76.347656 17.140625 -76.671875 19.578125 -77.078125 L 19.578125 0 Z M 2.9375 0 "/></g></g></g><g fill="#d5dbff" fill-opacity="1"><g transform="translate(112.433054, 106.703902)"><g><path d="M 11.0625 -60.75 C 8.488281 -60.75 6.285156 -61.644531 4.453125 -63.4375 C 2.628906 -65.226562 1.71875 -67.410156 1.71875 -69.984375 C 1.71875 -72.410156 2.628906 -74.503906 4.453125 -76.265625 C 6.285156 -78.023438 8.488281 -78.90625 11.0625 -78.90625 C 13.625 -78.90625 15.816406 -78.023438 17.640625 -76.265625 C 19.472656 -74.503906 20.390625 -72.410156 20.390625 -69.984375 C 20.390625 -67.410156 19.472656 -65.226562 17.640625 -63.4375 C 15.816406 -61.644531 13.625 -60.75 11.0625 -60.75 Z M 2.9375 0 L 2.9375 -44.53125 C 2.9375 -46.625 2.921875 -48.703125 2.890625 -50.765625 C 2.859375 -52.828125 2.773438 -54.90625 2.640625 -57 L 19.578125 -57 L 19.578125 0 Z M 2.9375 0 "/></g></g></g><g fill="#d5dbff" fill-opacity="1"><g transform="translate(138.189024, 106.703902)"><g><path d="M 30.328125 -58.921875 C 33.972656 -58.921875 37.21875 -57.582031 40.0625 -54.90625 C 42.90625 -52.238281 45.117188 -48.691406 46.703125 -44.265625 C 48.296875 -39.835938 49.09375 -34.921875 49.09375 -29.515625 C 49.09375 -23.703125 48.195312 -18.476562 46.40625 -13.84375 C 44.613281 -9.207031 42.242188 -5.554688 39.296875 -2.890625 C 36.359375 -0.222656 33.195312 1.109375 29.8125 1.109375 C 27.851562 1.109375 26.046875 0.617188 24.390625 -0.359375 C 22.734375 -1.335938 21.566406 -2.976562 20.890625 -5.28125 C 21.097656 -5.070312 21.351562 -4.929688 21.65625 -4.859375 C 21.957031 -4.796875 22.210938 -4.765625 22.421875 -4.765625 C 24.785156 -4.765625 26.84375 -7.007812 28.59375 -11.5 C 30.351562 -16 31.234375 -22.441406 31.234375 -30.828125 C 31.234375 -38.878906 30.421875 -44.78125 28.796875 -48.53125 C 27.179688 -52.28125 25.359375 -54.15625 23.328125 -54.15625 C 22.453125 -54.15625 21.910156 -53.953125 21.703125 -53.546875 C 22.242188 -54.898438 23.191406 -56.132812 24.546875 -57.25 C 25.898438 -58.363281 27.828125 -58.921875 30.328125 -58.921875 Z M 2.9375 15.625 L 2.9375 -57 L 19.578125 -57 L 19.578125 15.625 Z M 21.703125 -53.546875 L 21.703125 -53.453125 C 21.703125 -53.453125 21.703125 -53.46875 21.703125 -53.5 C 21.703125 -53.53125 21.703125 -53.546875 21.703125 -53.546875 Z M 21.703125 -53.546875 "/></g></g></g><g fill="#d5dbff" fill-opacity="1"><g transform="translate(191.322074, 106.703902)"><g><path d="M 11.265625 -57 C 12.410156 -57.539062 13.742188 -57.976562 15.265625 -58.3125 C 16.785156 -58.65625 18.457031 -58.828125 20.28125 -58.828125 C 25.6875 -58.828125 30.722656 -57.578125 35.390625 -55.078125 L 35.390625 -37.53125 C 33.160156 -41.039062 30.742188 -44.367188 28.140625 -47.515625 C 25.535156 -50.660156 22.8125 -53.144531 19.96875 -54.96875 C 17.132812 -56.789062 14.234375 -57.46875 11.265625 -57 Z M 29.3125 -1.421875 C 30.59375 -2.703125 30.828125 -4.1875 30.015625 -5.875 C 29.203125 -7.570312 27.75 -9.414062 25.65625 -11.40625 C 23.5625 -13.40625 21.226562 -15.414062 18.65625 -17.4375 C 16.019531 -19.539062 13.429688 -21.757812 10.890625 -24.09375 C 8.359375 -26.425781 6.265625 -29.046875 4.609375 -31.953125 C 2.953125 -34.859375 2.125 -38.171875 2.125 -41.890625 C 2.125 -45.878906 2.96875 -49.054688 4.65625 -51.421875 C 6.351562 -53.785156 8.21875 -55.441406 10.25 -56.390625 C 9.226562 -55.515625 8.921875 -54.414062 9.328125 -53.09375 C 9.734375 -51.769531 10.5625 -50.378906 11.8125 -48.921875 C 13.0625 -47.472656 14.5 -46.070312 16.125 -44.71875 C 17.75 -43.375 19.203125 -42.191406 20.484375 -41.171875 C 23.328125 -39.015625 26.132812 -36.703125 28.90625 -34.234375 C 31.675781 -31.765625 33.957031 -29.078125 35.75 -26.171875 C 37.539062 -23.265625 38.4375 -20.050781 38.4375 -16.53125 C 38.4375 -13.757812 37.910156 -11.304688 36.859375 -9.171875 C 35.816406 -7.046875 34.582031 -5.335938 33.15625 -4.046875 C 31.738281 -2.765625 30.457031 -1.890625 29.3125 -1.421875 Z M 28.09375 -0.703125 C 27.21875 -0.367188 25.984375 0.015625 24.390625 0.453125 C 22.804688 0.890625 20.796875 1.109375 18.359375 1.109375 C 15.179688 1.109375 12.070312 0.6875 9.03125 -0.15625 C 5.988281 -1 3.617188 -1.960938 1.921875 -3.046875 L 1.921875 -24.03125 C 3.617188 -20.789062 5.515625 -17.679688 7.609375 -14.703125 C 9.703125 -11.734375 11.894531 -9.128906 14.1875 -6.890625 C 16.488281 -4.660156 18.820312 -2.96875 21.1875 -1.8125 C 23.5625 -0.664062 25.863281 -0.296875 28.09375 -0.703125 Z M 28.09375 -0.703125 "/></g></g></g><g fill="#d5dbff" fill-opacity="1"><g transform="translate(232.895743, 106.703902)"><g><path d="M 20.484375 -58.625 C 20.691406 -58.6875 21.113281 -58.75 21.75 -58.8125 C 22.394531 -58.882812 23.191406 -58.921875 24.140625 -58.921875 C 28.804688 -58.921875 32.640625 -57.71875 35.640625 -55.3125 C 38.648438 -52.914062 40.15625 -49.488281 40.15625 -45.03125 C 40.15625 -41.3125 39.140625 -38.082031 37.109375 -35.34375 C 35.085938 -32.601562 32.503906 -30.320312 29.359375 -28.5 C 26.210938 -26.675781 22.914062 -25.222656 19.46875 -24.140625 C 20.757812 -25.960938 21.875 -28.257812 22.8125 -31.03125 C 23.757812 -33.800781 24.488281 -36.742188 25 -39.859375 C 25.507812 -42.972656 25.710938 -45.914062 25.609375 -48.6875 C 25.503906 -51.457031 25.046875 -53.753906 24.234375 -55.578125 C 23.421875 -57.398438 22.171875 -58.414062 20.484375 -58.625 Z M 13.796875 -39.953125 C 13.796875 -35.703125 14.382812 -31.816406 15.5625 -28.296875 C 16.75 -24.773438 18.507812 -21.96875 20.84375 -19.875 C 23.175781 -17.78125 26.03125 -16.734375 29.40625 -16.734375 C 31.570312 -16.734375 33.535156 -17.101562 35.296875 -17.84375 C 37.054688 -18.59375 38.304688 -19.238281 39.046875 -19.78125 L 39.046875 -1.828125 C 37.691406 -0.941406 35.847656 -0.234375 33.515625 0.296875 C 31.179688 0.835938 28.765625 1.109375 26.265625 1.109375 C 20.785156 1.109375 16.1875 -0.222656 12.46875 -2.890625 C 8.75 -5.554688 5.941406 -9.1875 4.046875 -13.78125 C 2.160156 -18.382812 1.21875 -23.523438 1.21875 -29.203125 C 1.21875 -36.984375 2.835938 -43.441406 6.078125 -48.578125 C 9.328125 -53.722656 13.691406 -56.9375 19.171875 -58.21875 C 18.222656 -57.875 17.34375 -56.820312 16.53125 -55.0625 C 15.71875 -53.3125 15.054688 -51.117188 14.546875 -48.484375 C 14.046875 -45.847656 13.796875 -43.003906 13.796875 -39.953125 Z M 13.796875 -39.953125 "/></g></g></g></g></g></svg>